# xmcd
#
# Track frame offsets:
#	150
#	5457
#	24102
#	41060
#	57307
#	70566
#	84180
#	99240
#	114308
#	129530
#	147701
#	163766
#	179529
#	195143
#	210058
#	226197
#	243927
#	257847
#	276339
#	291303
#	310242
#
# Disc length: 4364 seconds
#
# Revision: 1
# Processed by: cddbd v1.5.2PL0 Copyright (c) Steve Scherf et al.
# Submitted via: audiograbber 1.83.01
#
DISCID=17110a15
DTITLE=Diverse - 2000 A.H. Tour Norderney Vol.01  2000
DYEAR=2000
DGENRE=Pop
TTITLE0=Intro - Höhner - Jetzt geht's los
TTITLE1=Dj Ötzi - Gemma Bier Trinken
TTITLE2=Antonia - Ich Bin Viel Schöner
TTITLE3=Mickie Krause  - Zeig doch mal die Möpse
TTITLE4=Chris Marlow  Holz vor der Hütt'n
TTITLE5=Roland Brüggen - Mädchen Aus Gold
TTITLE6=Andreas Martin - Das Kann Nur Liebe Sein
TTITLE7=Brunner and Brunner - Lieb Mich Leib Und Seele
TTITLE8=Chris Alexandros - Bist du sauer heut Nacht
TTITLE9=Antonia - 20 Zentimeter
TTITLE10=ATC - Around The World (La La La La La)
TTITLE11=Tom Jones - Sex Bomb
TTITLE12=Eiffel - Move Your Body
TTITLE13=Viva La Noche - La Bomba
TTITLE14=DJ Ötzi - Hey Baby
TTITLE15=Die Inselfeger - Take Me Home Country
TTITLE16=Olaf Henning - Und Ab Dafür
TTITLE17=Olaf Henning - Lass Mich Endlich Los
TTITLE18=Andrea Berg - Die Gefühle Haben Schweigepflicht
TTITLE19=Peter White - Nicht ein Wort davon ist wahr
TTITLE20=Bläck Fööss - Scheiss Mondach Morje
EXTD=
EXTT0=
EXTT1=
EXTT2=
EXTT3=
EXTT4=
EXTT5=
EXTT6=
EXTT7=
EXTT8=
EXTT9=
EXTT10=
EXTT11=
EXTT12=
EXTT13=
EXTT14=
EXTT15=
EXTT16=
EXTT17=
EXTT18=
EXTT19=
EXTT20=
PLAYORDER=
